# xmcd CD database file
#
# Track frame offsets:
#	150
#	19802
#	35565
#
# Disc length: 734 seconds
#
# Revision: 0
# Processed by: cddbd v1.5.1PL0 Copyright (c) Steve Scherf et al.
# Submitted via: CDex 1.51
#
DISCID=1d02dc03
DTITLE=ブリーフ＆トランクス - 青のり
DYEAR=1998
DGENRE=JPop
TTITLE0=青のり
TTITLE1=風のとらえかた
TTITLE2=青のり(オリジナルカラオケ)
EXTD=YEAR: 1998
EXTT0=
EXTT1=
EXTT2=
PLAYORDER=
